<svg id="Layer_1" data-name="Layer 1" xmlns="http://www.w3.org/2000/svg" viewBox="0 0 250 250"><defs><style>.cls-1{fill:#1f2050;}.cls-2{fill:#4db8c6;}.cls-3{fill:#fff;}</style></defs><rect class="cls-1" width="250" height="250" rx="59.52"/><rect class="cls-2" x="174.19" y="126.22" width="22.52" height="22.33"/><path class="cls-3" d="M149.65,53.58a47.17,47.17,0,0,0-47.06,47.06v23.58H89.1A35.88,35.88,0,0,0,53.29,160v36.39H89.1a35.9,35.9,0,0,0,35.81-35.81V148.55h41.66V126.22H124.91V100.64A24.84,24.84,0,0,1,149.65,75.9h47.06V53.58Zm-47.06,107A13.55,13.55,0,0,1,89.1,174.1H75.61V160a13.55,13.55,0,0,1,13.49-13.5h13.49Z"/></svg>